<svg viewBox="0 0 1472 1069" xmlns="http://www.w3.org/2000/svg">
    <g transform="translate(0.000000,1069.000000) scale(0.100000,-0.100000)" stroke="none">
        <path d="M5728 10656 c-181 -65 -333 -285 -345 -501 -7 -108 3 -119 175 -202 195 -94 229 -133 318 -366 25 -67 96 -248 156 -402 226 -574 294 -785 333 -1025 21 -132 30 -280 18 -280 -6 0 -46 28 -89 61 -239 185 -474 300 -707 344 -194 37 -250 5 -285 -164 -21 -100 -9 -207 47 -428 25 -98 35 -153 27 -153 -15 1 -143 106 -301 249 -197 178 -278 247 -493 415 -200 157 -315 265 -459 436 -159 188 -291 293 -448 357 -102 42 -174 44 -244 9 -111 -57 -188 -208 -161 -317 7 -24 15 -109 19 -189 7 -130 10 -150 34 -198 73 -141 211 -161 537 -75 93 25 158 36 210 37 71 1 82 -2 175 -47 344 -166 835 -592 1044 -905 24 -35 41 -65 39 -67 -2 -2 -21 0 -43 5 -75 18 -282 12 -374 -10 -284 -68 -433 -276 -363 -507 45 -146 202 -325 405 -462 59 -39 107 -76 107 -81 0 -5 -19 -19 -42 -31 -70 -36 -142 -112 -176 -187 -64 -137 -66 -277 -6 -364 53 -76 179 -155 363 -228 101 -40 138 -71 178 -147 68 -129 163 -497 178 -688 3 -44 8 -90 11 -102 2 -13 1 -23 -4 -23 -4 0 -95 83 -200 185 -106 101 -227 207 -268 234 -203 136 -359 98 -465 -112 -62 -122 -82 -222 -83 -414 -1 -90 -4 -163 -8 -163 -20 0 -229 130 -335 210 -142 106 -364 301 -478 421 -49 51 -123 148 -187 245 -121 182 -196 260 -298 308 -58 28 -75 31 -155 31 -81 0 -95 -3 -144 -30 -104 -57 -172 -163 -197 -306 -25 -141 4 -263 82 -349 48 -53 116 -88 196 -99 78 -11 144 -2 277 38 221 66 281 43 551 -210 69 -64 197 -179 285 -255 288 -248 602 -533 618 -560 5 -9 -19 -5 -80 12 -246 69 -435 100 -554 90 -238 -20 -389 -136 -438 -338 -6 -26 -16 -104 -21 -174 -28 -340 -98 -449 -290 -447 -156 1 -255 48 -298 141 -29 62 -28 44 -22 407 2 122 -1 179 -14 238 -55 251 -189 497 -308 567 -48 28 -60 31 -123 28 -87 -5 -134 -26 -202 -94 -93 -92 -138 -215 -136 -369 1 -124 21 -211 117 -500 60 -180 80 -251 70 -253 -21 -5 -280 46 -402 80 -163 44 -172 54 -241 247 -92 258 -204 397 -386 482 -68 32 -184 59 -253 59 -124 -1 -253 -51 -319 -123 -103 -114 -124 -317 -47 -468 97 -194 401 -375 689 -411 73 -9 131 -9 269 1 232 17 337 5 566 -66 139 -42 300 -103 300 -113 0 -6 -75 -31 -360 -120 -74 -23 -167 -57 -206 -76 -149 -70 -274 -190 -344 -328 -35 -70 -42 -94 -47 -163 -5 -71 -3 -86 19 -135 78 -170 345 -207 588 -82 216 111 367 277 575 632 43 74 84 136 90 139 33 12 300 -151 447 -274 82 -68 178 -170 178 -187 0 -13 -58 -37 -290 -120 -96 -35 -212 -79 -258 -99 -297 -129 -448 -284 -481 -497 -29 -184 111 -284 374 -267 182 12 334 60 470 149 99 64 279 242 405 401 51 64 96 117 100 117 14 0 131 -154 225 -295 127 -192 192 -324 210 -427 5 -31 2 -39 -17 -52 -58 -38 -137 -48 -433 -56 -210 -6 -308 -13 -354 -24 -290 -73 -505 -265 -505 -450 1 -105 46 -166 167 -227 112 -57 192 -72 382 -72 302 0 427 46 707 256 151 114 225 160 234 146 9 -15 41 -223 49 -322 l7 -88 102 7 c55 4 101 7 102 8 0 0 -12 69 -27 151 -83 449 -70 492 259 871 57 66 150 189 207 274 103 155 103 155 181 200 163 92 260 165 394 296 74 72 145 137 157 143 28 14 61 2 153 -58 136 -88 208 -114 369 -130 102 -11 144 -29 172 -74 27 -44 111 -305 153 -479 76 -307 102 -573 92 -923 -3 -126 -9 -242 -12 -257 l-6 -28 90 0 91 0 8 38 c12 63 9 588 -5 722 -28 271 -69 475 -153 770 -68 235 -68 269 -4 415 54 124 68 217 45 301 -16 55 -75 150 -142 224 -70 77 -90 122 -96 206 -8 119 5 206 123 829 76 399 99 856 54 1074 -58 288 -309 572 -507 574 -130 1 -217 -98 -286 -323 -50 -166 -77 -333 -96 -595 -7 -88 -14 -162 -16 -164 -5 -5 -68 98 -108 177 -66 132 -145 376 -221 682 -44 179 -60 278 -80 495 -19 206 -47 347 -85 439 -17 39 -27 72 -25 75 6 5 -4 9 340 -112 292 -102 403 -146 524 -206 185 -93 294 -211 376 -402 67 -156 128 -216 294 -287 147 -64 199 -114 225 -218 8 -32 27 -149 41 -259 38 -295 120 -863 154 -1075 143 -876 197 -1347 242 -2115 16 -263 14 -906 -3 -1103 -8 -84 -13 -154 -12 -155 1 -1 45 -1 97 1 l95 3 7 166 c11 238 -1 979 -19 1248 -44 639 -107 1191 -211 1835 -102 632 -204 1379 -207 1511 -2 109 16 162 82 240 57 68 117 164 141 228 50 133 43 253 -28 459 -38 114 -47 150 -47 212 -1 70 24 170 42 170 4 0 21 -23 37 -51 44 -75 122 -151 193 -189 80 -43 122 -89 122 -136 0 -19 -10 -63 -21 -97 -28 -81 -30 -215 -4 -307 45 -161 168 -368 337 -566 52 -60 188 -202 302 -315 293 -288 355 -370 356 -462 0 -46 -15 -75 -79 -160 -59 -78 -83 -147 -83 -233 1 -117 47 -185 206 -307 108 -82 154 -132 185 -197 25 -53 26 -61 25 -240 0 -108 -10 -275 -22 -400 -54 -548 -70 -1362 -37 -1975 9 -171 13 -338 9 -373 l-6 -62 97 0 98 0 -7 73 c-26 290 -35 1263 -16 1725 20 482 71 980 110 1085 29 76 92 139 210 209 138 82 168 120 226 299 44 137 57 164 98 207 44 48 92 70 245 114 326 94 624 305 1014 718 232 246 435 543 483 707 22 75 15 159 -16 202 -45 64 -151 90 -291 71 -103 -14 -185 -41 -352 -115 -71 -31 -130 -55 -132 -53 -11 11 320 400 494 580 192 199 220 211 455 183 211 -24 288 -14 374 52 107 81 113 291 14 436 -42 60 -114 124 -170 149 -70 32 -200 32 -262 -1 -110 -58 -170 -129 -295 -346 -115 -200 -276 -406 -581 -745 -144 -160 -383 -375 -468 -422 -17 -9 -18 -7 -11 28 3 22 31 115 61 208 63 194 106 358 130 501 24 136 24 365 1 459 -64 257 -254 391 -464 328 -79 -24 -185 -95 -251 -166 -23 -25 -45 -46 -47 -46 -3 0 -5 156 -5 348 0 316 2 351 19 388 18 39 59 79 150 146 96 71 141 174 141 323 0 132 -39 255 -105 333 -42 50 -137 92 -209 92 -129 0 -264 -57 -358 -151 -84 -84 -103 -130 -103 -254 0 -91 3 -105 29 -154 15 -30 72 -100 126 -156 62 -65 102 -116 111 -141 20 -57 17 -620 -5 -854 -16 -161 -47 -354 -60 -368 -10 -9 -16 3 -62 124 -141 372 -265 534 -442 579 -112 29 -227 -10 -320 -109 -96 -101 -127 -205 -126 -416 1 -163 9 -229 61 -483 20 -97 33 -181 29 -185 -11 -10 -171 159 -244 258 -126 169 -169 293 -156 450 7 87 -7 175 -38 239 -20 41 -49 72 -181 192 l-48 44 16 60 c22 85 101 244 249 504 409 717 501 1017 405 1309 -86 260 -264 266 -525 19 -108 -103 -187 -206 -312 -407 -151 -242 -213 -337 -244 -372 l-29 -33 6 75 c13 181 75 445 174 751 163 504 225 607 429 718 168 90 228 145 279 258 39 84 44 209 11 273 -41 80 -114 112 -255 111 -67 -1 -103 -7 -190 -36 -141 -47 -201 -45 -226 5 -26 52 -129 26 -165 -40 -20 -39 -8 -117 36 -226 68 -170 85 -259 79 -404 -4 -98 -13 -154 -40 -261 -39 -149 -153 -494 -223 -677 -25 -64 -48 -125 -51 -134 -7 -25 -22 -22 -28 5 -2 12 -16 76 -31 142 -66 303 -186 567 -305 669 -52 44 -127 70 -177 61 -105 -19 -211 -101 -280 -217 -48 -81 -101 -235 -131 -385 -15 -73 -30 -135 -33 -138 -12 -12 -197 417 -293 680 -185 505 -205 633 -144 942 49 247 45 381 -17 503 -63 126 -184 180 -306 136z m147 -216 c45 -50 38 -180 -15 -264 -59 -93 -136 -99 -221 -17 -57 55 -60 73 -25 146 56 119 206 196 261 135z m2442 -633 c32 -20 -56 -140 -130 -176 -78 -38 -139 -22 -191 47 -26 37 -61 110 -55 117 19 19 348 30 376 12z m-1285 -1007 c122 -107 203 -421 215 -835 8 -261 -12 -500 -82 -990 -42 -290 -76 -470 -112 -588 -24 -81 -27 -86 -43 -72 -30 28 -68 108 -88 190 -21 81 -102 499 -166 850 -115 629 -123 988 -29 1248 56 157 131 236 224 237 28 0 46 -9 81 -40z m-3387 -4 c74 -31 98 -123 69 -272 -15 -84 -20 -95 -41 -100 -69 -18 -157 30 -204 111 -27 44 -30 58 -27 117 3 59 8 71 33 99 53 56 108 71 170 45z m4885 -241 c45 -41 52 -175 16 -316 -51 -202 -188 -487 -448 -934 -259 -447 -326 -544 -698 -1020 -68 -88 -108 -130 -115 -123 -12 12 16 260 46 406 97 469 347 1031 706 1587 205 317 405 479 493 400z m-2826 -540 c327 -82 566 -280 744 -615 85 -160 171 -419 206 -620 19 -111 31 -290 20 -290 -21 0 -188 136 -289 236 -396 392 -666 730 -795 998 -62 128 -75 166 -85 259 l-7 57 55 0 c30 0 98 -11 151 -25z m4194 -75 c40 -25 68 -70 81 -132 23 -105 -30 -208 -125 -244 -43 -16 -48 -16 -99 0 -107 33 -147 105 -120 210 38 145 165 225 263 166z m-4593 -928 c272 -74 565 -265 889 -582 140 -137 239 -254 293 -345 34 -58 76 -165 68 -173 -23 -23 -824 221 -1041 316 -354 156 -600 333 -703 506 -82 138 -34 244 132 291 70 20 266 13 362 -13z m3797 -492 c65 -50 113 -115 168 -225 162 -329 232 -801 201 -1342 -17 -286 -42 -429 -104 -593 l-24 -65 -28 54 c-15 30 -46 104 -70 165 -39 102 -63 175 -169 518 -109 351 -231 845 -262 1058 -29 202 -4 358 68 427 43 40 52 43 120 40 46 -3 64 -9 100 -37z m1187 -15 c16 -8 45 -34 65 -57 125 -145 103 -472 -62 -938 -163 -463 -356 -804 -571 -1015 l-51 -49 0 199 c0 437 98 1145 202 1460 84 257 216 415 346 415 24 0 56 -7 71 -15z m-2258 -18 c24 -13 52 -38 62 -55 50 -86 -7 -233 -109 -283 -57 -27 -103 -20 -138 22 -77 92 -52 259 48 320 41 25 84 24 137 -4z m3945 7 c45 -21 104 -88 104 -117 0 -24 -28 -56 -67 -76 -31 -16 -147 -14 -188 3 -41 18 -45 40 -15 101 22 47 37 65 70 88 31 21 53 21 96 1z m-3794 -585 c28 -20 133 -177 125 -186 -7 -6 -130 34 -179 58 -38 19 -138 113 -138 129 0 5 17 12 38 15 20 4 42 8 47 10 20 7 81 -8 107 -26z m-931 -46 c75 -24 149 -98 179 -178 27 -75 38 -221 21 -292 -32 -132 -167 -194 -345 -158 -89 18 -174 55 -208 92 -19 21 -23 37 -26 123 -7 157 36 308 106 373 60 57 171 73 273 40z m-2023 -81 c12 -22 25 -67 28 -99 8 -74 -4 -82 -83 -57 -66 21 -113 62 -113 99 0 38 27 83 62 105 27 16 35 17 57 5 15 -7 36 -31 49 -53z m3002 -282 c49 -20 193 -101 268 -151 129 -88 295 -284 375 -444 83 -167 168 -495 128 -495 -19 0 -188 120 -286 203 -322 271 -579 635 -610 866 l-7 53 43 -7 c24 -4 64 -15 89 -25z m3176 -244 c10 -27 -17 -126 -57 -204 -71 -141 -164 -257 -359 -452 -177 -178 -315 -294 -465 -394 -174 -116 -428 -219 -574 -232 l-73 -7 7 24 c17 57 107 230 156 301 244 348 802 812 1124 933 117 44 230 59 241 31z m-8298 -166 c55 -34 58 -53 22 -169 -39 -124 -53 -136 -128 -105 -66 27 -95 73 -90 140 5 61 34 106 86 134 47 25 69 25 110 0z m3348 -166 c73 -35 147 -144 192 -284 40 -122 47 -194 46 -445 -1 -198 -6 -275 -28 -440 -44 -336 -126 -753 -168 -854 l-14 -34 -48 64 c-153 203 -240 541 -268 1037 -27 481 45 873 175 952 39 24 68 25 113 4z m-1466 -317 c104 -46 189 -106 299 -212 223 -216 416 -516 552 -862 82 -209 149 -479 149 -598 l0 -54 -27 8 c-115 33 -275 151 -463 340 -294 295 -546 632 -680 906 -71 146 -90 201 -90 265 0 117 85 236 170 239 8 1 49 -14 90 -32z m4426 -663 c49 -23 164 -150 199 -220 54 -106 36 -221 -46 -303 -46 -46 -86 -63 -159 -69 -81 -5 -158 22 -286 101 -88 55 -141 102 -163 144 -16 31 -14 101 4 154 15 45 68 119 85 119 5 0 30 -18 56 -41 68 -59 95 -53 153 30 39 56 90 101 114 101 5 0 24 -7 43 -16z m-6745 -105 c92 -46 170 -205 205 -415 26 -158 4 -574 -30 -568 -17 3 -149 172 -203 258 -170 274 -242 576 -166 692 41 64 110 75 194 33z m-1379 -340 c73 -24 126 -60 189 -126 100 -104 161 -237 144 -313 -12 -55 -105 -72 -220 -40 -231 63 -436 224 -435 342 1 50 14 78 54 109 66 52 166 63 268 28z m3169 -55 c231 -44 545 -179 790 -342 220 -145 392 -306 539 -501 71 -94 73 -88 -38 -97 -112 -8 -493 2 -632 17 -234 25 -488 81 -636 139 -129 51 -254 121 -259 144 -2 12 -7 39 -10 61 -30 185 -152 376 -267 417 -36 13 -35 29 4 73 33 38 87 70 153 91 57 18 257 17 356 -2z m-481 -502 c50 -50 64 -103 64 -232 -1 -154 -59 -364 -146 -534 l-25 -49 -26 65 c-115 287 -112 665 5 763 44 37 82 33 128 -13z m2486 -423 c81 -40 182 -137 217 -208 82 -167 -38 -296 -245 -262 -86 14 -189 61 -217 99 -67 95 -43 294 46 372 47 42 112 42 199 -1z m-2911 -5 c14 -6 33 -169 22 -181 -7 -6 -217 167 -217 179 0 16 154 17 195 2z m-985 -215 c0 -37 -74 -161 -136 -228 -125 -135 -280 -207 -428 -199 -61 3 -78 7 -91 23 -44 57 52 218 180 302 76 50 229 98 355 112 94 11 120 9 120 -10z m1788 9 c67 -6 122 -15 122 -19 0 -18 -157 -149 -225 -188 -77 -44 -182 -88 -190 -79 -3 2 6 33 20 68 14 35 36 101 50 147 l26 83 37 0 c20 0 92 -5 160 -12z m1237 -81 c63 -18 157 -56 169 -67 11 -11 -77 -96 -177 -171 -150 -112 -263 -161 -320 -140 -15 6 -52 35 -82 65 -76 77 -105 91 -195 91 -117 0 -169 -33 -355 -221 -90 -91 -168 -160 -194 -174 -58 -29 -130 -24 -194 14 -51 29 -165 163 -151 176 5 4 36 15 69 25 146 41 230 89 403 228 197 158 360 199 767 192 143 -3 226 -8 260 -18z m-539 -482 c14 -21 16 -41 11 -108 -10 -148 -87 -289 -241 -443 -93 -92 -222 -188 -239 -177 -16 10 0 211 23 293 51 180 187 367 312 429 76 38 112 40 134 6z m-1432 -42 c-103 -179 -225 -298 -389 -380 -175 -88 -450 -118 -463 -51 -6 32 44 122 102 185 89 96 222 173 393 226 90 28 267 61 356 66 l29 1 -28 -47z m574 -1079 l22 -6 -26 -37 c-85 -114 -210 -206 -337 -247 -156 -50 -382 -44 -496 14 -76 38 -82 52 -45 99 66 83 196 148 357 179 75 14 477 13 525 -2z"/>
        <path d="M12598 4416 c-156 -64 -306 -256 -371 -476 -56 -188 -67 -290 -76 -675 -9 -414 2 -385 -186 -532 -162 -128 -204 -157 -211 -150 -3 3 4 52 15 109 74 366 28 624 -143 793 -66 66 -116 88 -194 87 -146 -3 -317 -186 -391 -417 -48 -147 -55 -205 -55 -405 1 -160 5 -212 33 -378 17 -106 34 -228 38 -271 11 -149 -41 -292 -157 -426 -30 -35 -58 -64 -62 -64 -3 -1 -9 29 -13 67 -45 489 -130 748 -306 937 -79 84 -148 119 -222 113 -103 -9 -174 -79 -248 -246 -159 -362 -173 -927 -32 -1357 14 -44 54 -143 88 -220 82 -186 98 -235 97 -315 0 -56 -5 -73 -32 -117 -19 -30 -34 -71 -37 -97 l-5 -45 36 -3 37 -3 4 -118 c2 -64 7 -122 10 -127 7 -11 184 -13 201 -2 6 4 16 47 22 95 6 48 20 108 32 134 17 39 23 44 42 39 59 -16 400 -77 515 -92 163 -21 502 -24 628 -5 106 16 254 61 319 97 193 108 250 333 140 553 -58 116 -163 198 -305 237 -102 29 -370 26 -514 -5 -180 -38 -399 -126 -577 -233 -21 -12 -40 -19 -44 -15 -21 21 142 364 247 518 80 118 198 238 264 269 106 51 168 40 457 -79 152 -62 304 -101 395 -101 130 1 280 58 367 140 79 74 118 155 124 252 4 69 2 84 -23 133 -53 110 -203 197 -405 235 -30 6 -112 11 -182 11 -84 0 -128 4 -128 11 0 22 236 245 295 279 51 29 70 34 125 34 78 0 123 -20 249 -114 180 -133 317 -191 498 -211 314 -34 532 86 533 292 0 179 -162 329 -492 454 -43 16 -78 34 -78 40 0 13 50 35 117 53 75 20 184 31 419 41 262 11 349 25 450 75 124 61 184 156 184 294 0 273 -236 450 -493 371 -99 -31 -178 -90 -347 -263 -90 -92 -184 -178 -224 -204 -65 -44 -213 -110 -223 -100 -2 3 13 83 35 179 71 304 92 486 73 640 -30 261 -136 357 -313 284z m86 -316 c14 -17 30 -47 36 -68 34 -123 -17 -381 -116 -590 -41 -86 -160 -265 -202 -305 -35 -34 -36 -33 -52 78 -26 186 -4 459 51 628 35 106 66 163 123 225 66 71 118 82 160 32z m1094 -506 c98 -50 105 -61 67 -115 -65 -91 -191 -127 -402 -114 -62 4 -113 11 -113 16 0 16 156 194 201 228 41 32 47 33 107 28 47 -4 84 -15 140 -43z m-2285 -320 c64 -48 94 -131 104 -281 10 -163 -28 -325 -123 -518 -54 -112 -170 -273 -184 -258 -17 17 -69 183 -91 288 -30 145 -33 402 -6 510 34 133 101 239 172 272 38 17 96 11 128 -13z m1470 -503 c96 -34 174 -96 213 -173 13 -26 24 -53 24 -61 0 -23 -64 -37 -173 -37 -172 0 -291 47 -414 163 -84 79 -84 82 -10 106 88 28 101 30 207 26 60 -3 116 -11 153 -24z m-2616 -350 c120 -87 209 -267 248 -501 14 -81 17 -141 12 -289 -4 -164 -8 -200 -35 -301 -16 -63 -44 -151 -61 -194 -32 -81 -96 -202 -111 -211 -14 -8 -114 119 -154 194 -78 148 -123 345 -133 576 -7 167 7 303 47 462 38 150 104 293 136 293 6 0 29 -13 51 -29z m1726 -386 c84 -22 150 -59 191 -106 20 -24 36 -48 36 -54 0 -24 -64 -86 -118 -112 -53 -26 -65 -28 -172 -27 -97 0 -128 5 -200 28 -84 28 -252 109 -271 132 -18 22 139 108 251 138 72 19 211 20 283 1z m-328 -1121 c105 -26 177 -92 201 -184 16 -62 6 -102 -38 -148 -44 -45 -71 -58 -170 -82 -159 -39 -470 -37 -717 6 -93 16 -301 74 -300 83 0 3 33 35 74 71 167 148 414 250 652 269 119 9 218 4 298 -15z"/>
        <path d="M14280 2126 c-216 -63 -344 -229 -539 -700 -34 -82 -89 -203 -122 -270 -59 -120 -145 -245 -159 -229 -3 4 -21 87 -39 183 -37 199 -58 269 -107 357 -62 111 -161 190 -284 227 -200 59 -296 -52 -307 -355 -10 -262 42 -425 239 -756 102 -171 118 -207 118 -266 0 -49 -15 -87 -70 -174 -17 -26 -30 -51 -30 -55 0 -4 48 -8 106 -8 104 0 107 1 140 30 63 55 94 57 235 16 68 -20 156 -40 194 -46 78 -11 425 -14 474 -4 86 17 206 188 237 337 27 125 4 208 -78 283 -84 77 -201 129 -347 154 -39 6 -71 15 -69 19 4 9 85 81 133 118 22 16 114 78 205 136 91 58 196 131 233 162 162 134 257 331 257 535 0 151 -42 235 -144 287 -42 22 -67 27 -141 29 -53 2 -108 -2 -135 -10z m184 -266 c19 -17 40 -47 46 -66 44 -132 -161 -374 -396 -468 -37 -15 -69 -24 -73 -21 -12 13 -3 203 13 266 52 203 165 319 313 319 55 0 66 -3 97 -30z m-1398 -461 c137 -93 211 -321 174 -538 -10 -61 -18 -80 -48 -113 l-35 -39 -34 33 c-47 46 -128 215 -159 333 -32 123 -37 268 -11 328 15 34 19 37 44 31 15 -4 47 -20 69 -35z m906 -788 c79 -25 146 -73 164 -118 20 -47 -15 -106 -83 -145 -125 -71 -381 -79 -508 -16 -74 37 -135 109 -135 160 0 51 84 109 194 134 89 20 281 12 368 -15z"/>
        <path d="M1432 1703 c-38 -18 -73 -74 -97 -153 -23 -75 -31 -315 -16 -449 7 -57 11 -105 8 -107 -2 -2 -37 8 -78 22 -220 75 -435 109 -638 101 -211 -9 -370 -64 -489 -173 -101 -91 -111 -154 -40 -270 109 -181 336 -371 572 -479 281 -128 616 -157 986 -84 117 22 152 20 221 -18 43 -23 56 -25 142 -22 52 2 98 7 101 10 4 3 -12 44 -34 90 -56 118 -64 168 -44 293 22 147 29 356 15 457 -26 176 -113 384 -226 534 -102 136 -264 266 -329 265 -12 0 -36 -8 -54 -17z m177 -345 c151 -127 238 -331 248 -588 5 -123 -7 -250 -24 -250 -3 0 -28 16 -55 37 -135 99 -224 287 -264 555 -14 95 -14 124 -4 183 13 73 25 105 39 105 5 0 32 -19 60 -42z m-790 -448 c186 -31 370 -127 534 -280 78 -73 207 -238 207 -265 0 -45 -337 -72 -505 -40 -347 64 -764 333 -729 470 19 75 143 122 329 124 55 0 129 -4 164 -9z"/>
    </g>
</svg>