<svg viewBox="0 0 1330 1070" xmlns="http://www.w3.org/2000/svg">
    <g transform="translate(0.000000,1070.000000) scale(0.100000,-0.100000)" fill="#d52b1e" stroke="none">
        <path d="M2720 10683 c-482 -14 -949 -94 -1405 -240 -289 -92 -718 -285 -969 -437 -60 -36 -112 -66 -115 -66 -11 0 -191 -113 -203 -128 -10 -11 -12 -61 -10 -196 1 -100 4 -2097 6 -4439 1 -2341 6 -4260 9 -4263 3 -4 68 32 144 79 318 196 352 214 673 364 99 46 204 88 320 128 52 18 120 42 150 53 30 11 93 30 140 42 47 12 112 30 145 40 247 75 628 132 1028 152 881 44 1893 -147 3262 -615 205 -71 580 -201 1145 -400 909 -319 1617 -523 2132 -616 419 -76 825 -119 1188 -128 278 -6 429 1 755 38 599 66 1267 293 1803 611 76 45 139 85 140 90 2 4 9 8 15 8 7 1 54 29 106 63 l95 62 2 4240 c1 2332 2 4335 2 4450 0 116 -4 214 -8 219 -6 5 -41 -12 -87 -41 -115 -74 -260 -165 -328 -206 -76 -46 -514 -254 -621 -295 -76 -29 -336 -113 -504 -162 -394 -116 -822 -173 -1295 -172 -680 1 -1330 105 -2200 353 -457 131 -831 255 -1680 559 -961 344 -1402 483 -1998 631 -495 122 -986 199 -1372 214 -235 9 -366 11 -465 8z m745 -268 c176 -16 597 -73 653 -89 9 -2 40 -7 67 -11 62 -7 309 -63 517 -116 86 -22 164 -42 175 -44 74 -17 410 -114 558 -160 99 -32 187 -59 195 -60 8 -2 16 -4 18 -4 1 -1 5 -1 10 -2 4 -1 138 -46 297 -101 160 -55 304 -103 320 -108 17 -4 149 -50 295 -103 254 -92 799 -279 925 -318 33 -10 110 -34 170 -53 274 -85 553 -168 590 -175 22 -5 117 -29 210 -54 150 -41 477 -117 560 -131 17 -3 55 -9 85 -15 187 -33 433 -70 570 -85 526 -59 1044 -46 1549 40 80 13 152 24 160 24 9 0 -63 -47 -159 -104 -307 -181 -969 -569 -1485 -871 -373 -217 -861 -503 -1060 -620 -201 -119 -595 -349 -1040 -610 -407 -238 -694 -408 -857 -506 l-146 -89 -79 48 c-43 27 -154 93 -248 147 -183 105 -714 416 -1125 658 -140 83 -358 211 -485 285 -650 380 -1099 643 -1360 797 -159 95 -335 198 -390 230 -55 32 -197 115 -315 185 -118 70 -312 183 -430 252 -207 120 -914 537 -1285 757 -99 59 -260 154 -357 211 -97 57 -175 107 -172 112 9 15 277 161 427 233 200 95 320 143 535 215 240 80 379 118 532 146 14 2 70 13 125 24 197 39 477 71 730 84 135 7 552 -4 720 -19z m9658 -5058 c1 -1721 -2 -3117 -7 -3117 -4 0 -72 37 -150 83 -77 46 -319 188 -536 317 -821 484 -1127 664 -1530 900 -228 134 -507 298 -620 365 -113 67 -277 164 -365 215 -88 51 -252 148 -365 215 -113 67 -266 157 -340 200 -74 43 -211 124 -305 180 -93 56 -269 160 -390 230 -121 70 -317 184 -435 253 -118 69 -221 129 -228 135 -10 8 18 28 110 82 558 326 864 507 1388 820 333 199 778 465 990 590 212 126 561 333 775 460 215 128 586 348 825 490 463 274 1043 622 1124 674 27 17 51 29 53 28 2 -2 4 -1406 6 -3120z m-12644 2928 c107 -64 321 -191 475 -282 387 -228 816 -483 1166 -693 162 -97 360 -214 440 -260 80 -46 172 -100 205 -120 33 -21 195 -117 360 -215 742 -439 979 -579 1250 -740 479 -284 721 -427 895 -527 90 -52 165 -99 167 -104 1 -5 -77 -55 -175 -111 -97 -55 -316 -183 -487 -283 -642 -377 -967 -567 -1190 -698 -233 -137 -752 -442 -1370 -805 -317 -187 -462 -272 -1330 -785 -181 -107 -412 -244 -512 -304 -99 -59 -184 -108 -187 -108 -3 0 -6 1399 -6 3110 l0 3110 53 -34 c28 -18 139 -86 246 -151z m6301 -3731 c69 -42 184 -111 255 -153 276 -164 648 -382 820 -483 446 -261 1122 -658 1240 -728 72 -43 211 -125 310 -182 99 -58 324 -189 500 -293 565 -331 883 -518 1195 -700 168 -98 409 -239 535 -313 127 -74 336 -197 465 -272 611 -355 810 -473 810 -480 0 -21 -428 -252 -580 -313 -25 -10 -54 -22 -65 -27 -198 -82 -502 -187 -593 -205 -12 -2 -26 -6 -30 -9 -5 -3 -19 -7 -33 -9 -13 -3 -98 -21 -189 -41 -206 -44 -260 -52 -490 -77 -241 -27 -640 -35 -880 -20 -258 17 -701 73 -960 121 -112 21 -145 27 -199 36 -64 11 -306 72 -546 139 -132 37 -251 69 -265 71 -14 3 -117 34 -230 69 -113 35 -230 72 -260 81 -78 23 -597 199 -915 309 -315 110 -840 287 -1040 351 -203 66 -677 203 -750 218 -11 3 -101 25 -200 49 -317 79 -605 138 -745 152 -36 4 -68 9 -71 11 -17 10 -458 55 -644 65 -295 16 -716 -2 -970 -41 -33 -5 -85 -12 -115 -15 -30 -4 -102 -15 -160 -26 -58 -10 -109 -19 -115 -19 -12 0 -4 5 255 157 314 185 793 467 1125 663 312 184 937 551 1395 818 146 85 335 196 420 247 85 51 405 239 710 417 305 179 623 366 705 416 83 51 157 92 165 92 8 0 71 -35 140 -76z"/>
    </g>
</svg>